<svg width="38.000000" height="38.000000" viewBox="0 0 38 38" fill="none" xmlns="http://www.w3.org/2000/svg" xmlns:xlink="http://www.w3.org/1999/xlink">
	<desc>
			Created with Pixso.
	</desc>
	<defs/>
	<rect id="BASE" y="12.000000" width="24.000000" height="24.000000" fill="#415167" fill-opacity="1.000000"/>
	<rect id="BASE" y="12.000000" width="24.000000" height="24.000000" stroke="#979797" stroke-opacity="0" stroke-width="0.000000"/>
	<path id="Shape" d="M4.31 16.66L17.72 16.66C17.76 16.66 17.8 16.67 17.84 16.69L18.17 15.58C18.27 15.23 18.59 15 18.95 15L20.59 15C20.81 15 21 15.18 21 15.41L21 16.24C21 16.47 20.81 16.66 20.59 16.66L19.56 16.66L17 25.2L17.95 26.33C18.33 26.78 18.5 27.4 18.33 27.96C18.11 28.68 17.48 29.14 16.76 29.14L5.04 29.14C4.81 29.14 4.63 28.95 4.63 28.72L4.63 27.89C4.63 27.66 4.81 27.47 5.04 27.47L16.76 27.47L15.46 25.94C15.43 25.9 15.41 25.85 15.38 25.81L7.46 25.81C6.82 25.81 6.24 25.44 5.97 24.85L3.12 18.69C3.04 18.51 3 18.31 3 18.12L3 18C3 17.26 3.58 16.66 4.31 16.66Z" fill="#F9FBFF" fill-opacity="1.000000" fill-rule="nonzero"/>
	<path id="Oval" d="M16.17 33C15.29 33 14.57 32.28 14.57 31.39C14.57 30.5 15.29 29.78 16.17 29.78C17.06 29.78 17.78 30.5 17.78 31.39C17.78 32.28 17.06 33 16.17 33Z" fill="#FFFFFF" fill-opacity="1.000000" fill-rule="nonzero"/>
	<path id="Oval" d="M6.53 33C5.64 33 4.92 32.28 4.92 31.39C4.92 30.5 5.64 29.78 6.53 29.78C7.42 29.78 8.14 30.5 8.14 31.39C8.14 32.28 7.42 33 6.53 33Z" fill="#FFFFFF" fill-opacity="1.000000" fill-rule="nonzero"/>
	<path id="BASE" d="M26 22C31.52 22 36 17.52 36 12C36 6.47 31.52 2 26 2C20.47 2 16 6.47 16 12C16 17.52 20.47 22 26 22Z" fill="#C7A17A" fill-opacity="1.000000" fill-rule="evenodd"/>
	<path id="BASE" d="M36 12C36 6.47 31.52 2 26 2C20.47 2 16 6.47 16 12C16 17.52 20.47 22 26 22C31.52 22 36 17.52 36 12Z" stroke="#979797" stroke-opacity="0" stroke-width="0.000000"/>
	<rect id="Rectangle 3" width="38.000000" height="38.000000" fill="#D8D8D8" fill-opacity="0"/>
	<rect id="Rectangle 3" width="38.000000" height="38.000000" stroke="#979797" stroke-opacity="0" stroke-width="0.000000"/>
	<path id="2" d="M29.77 16.12Q29.67 16.06 29.53 16.06L24.78 16.06L27.74 12.82Q28.63 11.83 29.02 11.03Q29.3 10.47 29.38 9.88Q29.41 9.63 29.41 9.38Q29.41 8.51 29.01 7.91Q28.86 7.69 28.66 7.51Q28.61 7.47 28.56 7.43Q27.82 6.83 26.6 6.83Q26.31 6.83 26.02 6.87Q25.45 6.94 24.91 7.15Q24.08 7.48 23.52 8.02Q23.42 8.11 23.38 8.23Q23.34 8.32 23.34 8.43Q23.34 8.54 23.39 8.64Q23.4 8.67 23.42 8.7Q23.49 8.78 23.57 8.8Q23.59 8.8 23.62 8.8Q23.64 8.8 23.66 8.8Q23.81 8.79 23.94 8.66Q24.61 8.1 25.25 7.85Q25.42 7.78 25.59 7.73Q26.08 7.59 26.6 7.59Q27.49 7.59 27.99 8.03Q28.01 8.05 28.03 8.06Q28.12 8.14 28.19 8.23Q28.55 8.68 28.55 9.42Q28.55 10.08 28.21 10.74Q27.88 11.4 27.13 12.25L23.67 16.1Q23.6 16.17 23.57 16.26Q23.53 16.34 23.53 16.43Q23.53 16.5 23.56 16.56Q23.58 16.64 23.65 16.7Q23.67 16.72 23.69 16.74Q23.79 16.81 23.95 16.81L29.53 16.81Q29.74 16.81 29.84 16.7Q29.93 16.61 29.93 16.43Q29.93 16.33 29.89 16.25Q29.86 16.2 29.82 16.16Q29.8 16.14 29.77 16.12Z" fill="#F9FBFF" fill-opacity="1.000000" fill-rule="evenodd"/>
</svg>
