<svg width="40.000000" height="40.000000" viewBox="0 0 40 40" fill="none" xmlns="http://www.w3.org/2000/svg" xmlns:xlink="http://www.w3.org/1999/xlink">
	<desc>
			Created with Pixso.
	</desc>
	<defs/>
	<rect id="base" width="40.000000" height="39.741936" fill="#D8D8D8" fill-opacity="0"/>
	<rect id="base" width="40.000000" height="39.741936" stroke="#979797" stroke-opacity="0" stroke-width="0.000000"/>
	<path id="Shape" d="M15.99 24.98C13.74 21.15 13.74 17.17 13.96 15.32C8.69 17.83 5.54 23.21 7.66 28.03C10.16 28.28 13.67 27.52 15.99 24.98Z" fill="#415167" fill-opacity="1.000000" fill-rule="nonzero"/>
	<path id="Shape" d="M16.57 25.91C14.52 28.08 10.99 29.31 8.3 29.15C10.76 32.7 17.29 34.26 23.18 30.83C20.66 30.22 18.28 28.43 16.57 25.91Z" fill="#415167" fill-opacity="1.000000" fill-rule="nonzero"/>
	<path id="Shape" d="M22.73 17.96C19.21 14.06 18.91 10.34 19.4 7.89C15.76 9.98 13.99 15.32 15.41 20.77C17 27 22.65 31.71 27.95 29.34C28.12 27.59 27.9 23.66 22.73 17.96Z" fill="#415167" fill-opacity="1.000000" fill-rule="nonzero"/>
	<path id="Shape" d="M32.52 16.18C30.9 9.98 25.51 5.69 20.59 7.35C19.88 9.68 19.98 13.43 23.53 17.26C25.14 19.15 29.12 23.64 29.05 28.73C32.31 26.43 33.84 21.36 32.52 16.18Z" fill="#415167" fill-opacity="1.000000" fill-rule="nonzero"/>
</svg>
