<svg width="40.000000" height="40.000000" viewBox="0 0 40 40" fill="none" xmlns="http://www.w3.org/2000/svg" xmlns:xlink="http://www.w3.org/1999/xlink">
	<desc>
			Created with Pixso.
	</desc>
	<defs/>
	<rect id="base" width="40.000000" height="39.741936" fill="#D8D8D8" fill-opacity="0"/>
	<rect id="base" width="40.000000" height="39.741936" stroke="#979797" stroke-opacity="0" stroke-width="0.000000"/>
	<path id="Shape" d="M19.01 7.39C18.85 7.11 18.51 6.98 18.24 6.95C17.92 6.96 17.63 7.13 17.48 7.42L14.37 13.24L16 15.11L17.51 12.68C17.83 12.16 18.68 12.16 19 12.68L20.51 15.11L22.28 13.03L19.01 7.39Z" fill="#415167" fill-opacity="1.000000" fill-rule="nonzero"/>
	<path id="Shape" d="M23.75 15.59L23.23 14.7L21.15 17.23C20.98 17.46 20.73 17.62 20.41 17.59C20.11 17.58 19.85 17.42 19.69 17.17L18.24 14.83L16.79 17.17C16.63 17.42 16.37 17.58 16.08 17.59C16.06 17.59 16.05 17.59 16.04 17.59C15.76 17.59 15.5 17.45 15.33 17.23L13.44 14.96L5.1 30.48C4.95 30.76 4.96 31.09 5.12 31.36C5.28 31.62 5.56 31.79 5.87 31.79L15.77 31.79C15.52 31.07 15.57 30.27 15.94 29.59L23.75 15.59Z" fill="#415167" fill-opacity="1.000000" fill-rule="nonzero"/>
	<path id="Shape" d="M26.95 16.3C26.63 15.74 25.72 15.74 25.41 16.3L23.57 19.58L26.18 22.44L28.78 19.58L26.95 16.3Z" fill="#415167" fill-opacity="1.000000" fill-rule="nonzero"/>
	<path id="Shape" d="M34.88 30.47L29.66 21.2L26.82 24.38C26.66 24.58 26.41 24.7 26.15 24.7C25.89 24.7 25.64 24.58 25.47 24.38L22.64 21.2L17.47 30.47C17.32 30.74 17.32 31.08 17.48 31.35C17.64 31.62 17.92 31.79 18.24 31.79L34.12 31.79C34.43 31.79 34.72 31.62 34.87 31.35C35.03 31.08 35.04 30.74 34.88 30.47Z" fill="#415167" fill-opacity="1.000000" fill-rule="nonzero"/>
</svg>
