<svg width="80.000000" height="80.326538" viewBox="0 0 80 80.3265" fill="none" xmlns="http://www.w3.org/2000/svg" xmlns:xlink="http://www.w3.org/1999/xlink">
	<desc>
			Created with Pixso.
	</desc>
	<defs/>
	<path id="Shape" d="M40 0C46.8748 0 52.9084 3.62897 56.3432 9.06915L80 9.06915L80 80.3265L0 80.3265L0 9.06915L23.6568 9.06915C27.0903 3.62897 33.1252 0 40 0ZM40 2.59119C49.249 2.59119 56.7742 10.147 56.7742 19.4338L56.7742 22.025L77.4193 22.025L77.4193 42.7545L47.2826 42.7545C49.92 40.6154 51.6129 37.3467 51.6129 33.6853L51.6129 22.025L28.3871 22.025L28.3871 24.6162C24.1174 24.6162 20.6452 28.1026 20.6452 32.3897C20.6452 36.6768 24.1174 40.1633 28.3871 40.1633L30.351 40.1633C31.0052 41.1428 31.8052 42.0146 32.7174 42.7545L2.58064 42.7545L2.58064 22.025L23.2258 22.025L23.2258 19.4338C23.2258 10.147 30.751 2.59119 40 2.59119ZM54.1936 50.528L25.8064 50.528L25.8064 45.3456L54.1936 45.3456L54.1936 50.528ZM30.9677 33.6853L30.9677 24.6162L49.0323 24.6162L49.0323 33.6853C49.0323 38.6863 44.9806 42.7545 40 42.7545C35.0194 42.7545 30.9677 38.6863 30.9677 33.6853ZM29.0645 37.5721L28.3871 37.5721C25.5406 37.5721 23.2258 35.2478 23.2258 32.3897C23.2258 29.5317 25.5406 27.2074 28.3871 27.2074L28.3871 33.6853C28.3871 35.0496 28.6335 36.3542 29.0645 37.5721ZM2.58064 16.8427L15.4839 16.8427L15.4839 14.2515L2.58064 14.2515L2.58064 11.6603L22.2723 11.6603C21.9084 12.4947 21.6103 13.3614 21.3652 14.2515L18.0645 14.2515L18.0645 16.8427L20.8374 16.8427C20.7239 17.6926 20.6452 18.5529 20.6452 19.4338L2.58064 19.4338L2.58064 16.8427ZM2.58064 77.7354L2.58064 45.3456L23.2258 45.3456L23.2258 77.7354L2.58064 77.7354ZM25.8064 53.1191L38.7097 53.1191L38.7097 77.7354L25.8064 77.7354L25.8064 53.1191ZM41.2903 77.7354L41.2903 53.1191L54.1935 53.1191L54.1935 77.7354L41.2903 77.7354ZM77.4194 77.7354L56.7742 77.7354L56.7742 45.3456L77.4194 45.3456L77.4194 77.7354ZM59.3548 19.4338C59.3548 18.5529 59.2761 17.6926 59.1626 16.8427L61.9355 16.8427L61.9355 14.2515L58.6348 14.2515C58.3884 13.3614 58.0916 12.4947 57.7277 11.6603L77.4194 11.6603L77.4194 14.2515L64.5161 14.2515L64.5161 16.8427L77.4194 16.8427L77.4194 19.4338L59.3548 19.4338Z" clip-rule="evenodd" fill="#232C38" fill-opacity="1.000000" fill-rule="evenodd"/>
</svg>
